<svg id="圖層_1" data-name="圖層 1" xmlns="http://www.w3.org/2000/svg" viewBox="0 0 340.32 242.42"><defs><style>.cls-1{fill:#51ae8a;}</style></defs><title>em-s</title><path class="cls-1" d="M252,301.2c-48.1,0-96.2-.6-144.3.3-17.6.3-25-4.3-24.7-23.5q1.5-97.8,0-195.5c-.3-19,6.8-23.5,24.5-23.4q145.5,1,291,0c17.5-.1,25.1,4,24.8,23.2q-1.5,97.8,0,195.5c.3,18.9-6.8,24-24.6,23.7C349.8,300.6,300.9,301.2,252,301.2Zm1.5-18.4c44.2,0,88.3-.4,132.5.3,13.5.2,19.1-2.5,18.8-17.7q-1.35-84.75,0-169.7c.2-14.5-4.2-18.3-18.3-18.1q-133.65.9-267.3.1c-12.4-.1-17.7,2.5-17.6,16.4q1.05,86,0,172c-.1,13.2,3.9,17.2,17.1,17,44.9-.7,89.8-.3,134.8-.3Z" transform="translate(-82.99 -59.1)"/><path class="cls-1" d="M253.4,212.5c-16.2-.9-30.2-6.6-41.7-18.1q-40.2-40.35-80.3-80.8c-5.3-5.4-13.5-11.7-5.1-19.2,8.2-7.3,13.9,1.7,19.1,6.9,25.2,25.2,50.1,50.7,75.5,75.7,22.6,22.3,41.8,22.4,64.2.3,25.9-25.6,51.3-51.6,77-77.4C367,95,372.7,87.8,379.7,94c8.3,7.4.9,13.8-4.5,19.3q-40.95,41.25-82,82.3C282.2,206.5,268.6,211.6,253.4,212.5Z" transform="translate(-82.99 -59.1)"/><path class="cls-1" d="M324.2,193.6c3,1.6,5.4,2.2,6.9,3.7,16.2,16.5,32.3,33,48.3,49.7,4.1,4.3,5.4,9.8.6,14.4-5.2,5-10.1,1.8-14-2.3-15.5-16.1-30.8-32.3-46.2-48.5-3.5-3.7-5.2-8.1-2.6-12.5C318.5,195.9,321.9,195,324.2,193.6Z" transform="translate(-82.99 -59.1)"/><path class="cls-1" d="M191.1,203.3c-2.2,3.3-3.6,6.1-5.6,8.2q-22,23.55-44.4,46.8c-4.3,4.5-9.5,9-15.5,2.2-4.6-5.2-1.9-10.2,1.9-14.3q23.1-24.15,46.4-48c3.5-3.6,7.9-5.3,12.4-2.3C188.5,197.4,189.5,200.7,191.1,203.3Z" transform="translate(-82.99 -59.1)"/></svg>