<?xml version="1.0" encoding="utf-8"?>
<!-- Generator: Adobe Illustrator 22.0.1, SVG Export Plug-In . SVG Version: 6.00 Build 0)  -->
<svg version="1.1" id="圖層_1" xmlns="http://www.w3.org/2000/svg" xmlns:xlink="http://www.w3.org/1999/xlink" x="0px" y="0px"
	 viewBox="0 0 506.2 360.7" style="enable-background:new 0 0 506.2 360.7;" xml:space="preserve">
<style type="text/css">
	.st0{fill:#787878;}
	.st1{fill:#7F7F7F;}
</style>
<title>em</title>
<path class="st0" d="M252,301.2c-48.1,0-96.2-0.6-144.3,0.3c-17.6,0.3-25-4.3-24.7-23.5c1-65.2,1-130.3,0-195.5
	c-0.3-19,6.8-23.5,24.5-23.4c97,0.7,194,0.7,291,0c17.5-0.1,25.1,4,24.8,23.2c-1,65.2-1,130.3,0,195.5c0.3,18.9-6.8,24-24.6,23.7
	C349.8,300.6,300.9,301.2,252,301.2z M253.5,282.8c44.2,0,88.3-0.4,132.5,0.3c13.5,0.2,19.1-2.5,18.8-17.7
	c-0.9-56.5-0.9-113.1,0-169.7c0.2-14.5-4.2-18.3-18.3-18.1c-89.1,0.6-178.2,0.6-267.3,0.1c-12.4-0.1-17.7,2.5-17.6,16.4
	c0.7,57.3,0.7,114.7,0,172c-0.1,13.2,3.9,17.2,17.1,17C163.6,282.4,208.5,282.8,253.5,282.8L253.5,282.8z"/>
<path class="st1" d="M253.4,212.5c-16.2-0.9-30.2-6.6-41.7-18.1c-26.8-26.9-53.6-53.8-80.3-80.8c-5.3-5.4-13.5-11.7-5.1-19.2
	c8.2-7.3,13.9,1.7,19.1,6.9c25.2,25.2,50.1,50.7,75.5,75.7c22.6,22.3,41.8,22.4,64.2,0.3c25.9-25.6,51.3-51.6,77-77.4
	c4.9-4.9,10.6-12.1,17.6-5.9c8.3,7.4,0.9,13.8-4.5,19.3c-27.3,27.5-54.6,54.9-82,82.3C282.2,206.5,268.6,211.6,253.4,212.5z"/>
<path class="st0" d="M324.2,193.6c3,1.6,5.4,2.2,6.9,3.7c16.2,16.5,32.3,33,48.3,49.7c4.1,4.3,5.4,9.8,0.6,14.4
	c-5.2,5-10.1,1.8-14-2.3c-15.5-16.1-30.8-32.3-46.2-48.5c-3.5-3.7-5.2-8.1-2.6-12.5C318.5,195.9,321.9,195,324.2,193.6z"/>
<path class="st0" d="M191.1,203.3c-2.2,3.3-3.6,6.1-5.6,8.2c-14.7,15.7-29.5,31.3-44.4,46.8c-4.3,4.5-9.5,9-15.5,2.2
	c-4.6-5.2-1.9-10.2,1.9-14.3c15.4-16.1,30.9-32.1,46.4-48c3.5-3.6,7.9-5.3,12.4-2.3C188.5,197.4,189.5,200.7,191.1,203.3z"/>
</svg>
