<?xml version="1.0" encoding="utf-8"?>
<!-- Generator: Adobe Illustrator 22.0.1, SVG Export Plug-In . SVG Version: 6.00 Build 0)  -->
<svg version="1.1" id="圖層_1" xmlns="http://www.w3.org/2000/svg" xmlns:xlink="http://www.w3.org/1999/xlink" x="0px" y="0px"
	 viewBox="0 0 512 451.3" style="enable-background:new 0 0 512 451.3;" xml:space="preserve">
<style type="text/css">
	.st0{fill:#7B7B7B;}
</style>
<title>home</title>
<path class="st0" d="M90.7,325.4c0-12.4-0.7-24.9,0.1-37.3c1.5-24.2,3.1-47.2-33.1-42.5c-9.3,1.2-15.7-6.8-18.5-15.5
	c-4.3-13.3,4.1-21.7,13-29.3c45.6-39.4,91.3-78.7,137-118c15.2-13.1,30.7-25.9,45.7-39.3c13.4-12,26.2-14,40.6-1.5
	c62.2,53.9,124.5,107.6,186.9,161.1c8.3,7.2,14.6,15.6,10.3,27.5c-4.1,11.4-13.3,17.2-24.6,15.8c-25.2-3.1-27.7,10.7-27,30.7
	c1.1,35.4,0,70.8,0.4,106.2c0.3,24-10.2,35.3-34.7,34.4c-22.9-0.8-45.9-0.6-68.9-0.1c-22.7,0.5-33.9-9.4-33.3-32.6
	c0.5-20.1-0.4-40.2,0.2-60.3c0.9-26.5-19-15.2-30.5-16.1s-28.5-6.9-27.1,16.7c1.2,20-0.1,40.2,0.3,60.3c0.4,21.3-9.3,32.1-31,31.9
	c-24.9-0.2-49.8-0.3-74.6,0c-21.9,0.3-31.2-11.1-31.1-32C90.8,365.6,90.7,345.5,90.7,325.4z M63.2,221.6
	c50.1,3.9,50.1,3.9,50.1,48.9v83.2c0,40.9,0,40.9,40.9,40.9c50.2,0,50.2,0,50.2-48.5c0-60.9,0-60.9,60.5-60.9
	c42.7,0,42.7,0,42.7,41.4c0,71.2,0,70.5,70.9,68.4c17-0.5,20.8-6.5,20.4-21.9c-0.9-35.4-0.3-70.8-0.3-106.2c0-41.4,0-41.4,40.7-44.2
	c1.3-0.1,2.5-2,5.4-4.6c-59.7-51.5-118.8-102.6-177.9-153.7c-6.5-5.6-12.6-7.9-20.1-1.4C187.1,114.7,127.3,166.3,63.2,221.6z"/>
</svg>
