<svg id="圖層_1" data-name="圖層 1" xmlns="http://www.w3.org/2000/svg" viewBox="0 0 436.05 384.23"><defs><style>.cls-1{fill:#51ae8a;}</style></defs><title>home-s</title><path class="cls-1" d="M90.7,325.4c0-12.4-.7-24.9.1-37.3,1.5-24.2,3.1-47.2-33.1-42.5-9.3,1.2-15.7-6.8-18.5-15.5-4.3-13.3,4.1-21.7,13-29.3q68.4-59.1,137-118c15.2-13.1,30.7-25.9,45.7-39.3,13.4-12,26.2-14,40.6-1.5q93.3,80.85,186.9,161.1c8.3,7.2,14.6,15.6,10.3,27.5-4.1,11.4-13.3,17.2-24.6,15.8-25.2-3.1-27.7,10.7-27,30.7,1.1,35.4,0,70.8.4,106.2.3,24-10.2,35.3-34.7,34.4-22.9-.8-45.9-.6-68.9-.1-22.7.5-33.9-9.4-33.3-32.6.5-20.1-.4-40.2.2-60.3.9-26.5-19-15.2-30.5-16.1s-28.5-6.9-27.1,16.7c1.2,20-.1,40.2.3,60.3.4,21.3-9.3,32.1-31,31.9-24.9-.2-49.8-.3-74.6,0-21.9.3-31.2-11.1-31.1-32C90.8,365.6,90.7,345.5,90.7,325.4ZM63.2,221.6c50.1,3.9,50.1,3.9,50.1,48.9v83.2c0,40.9,0,40.9,40.9,40.9,50.2,0,50.2,0,50.2-48.5,0-60.9,0-60.9,60.5-60.9,42.7,0,42.7,0,42.7,41.4,0,71.2,0,70.5,70.9,68.4,17-.5,20.8-6.5,20.4-21.9-.9-35.4-.3-70.8-.3-106.2,0-41.4,0-41.4,40.7-44.2,1.3-.1,2.5-2,5.4-4.6C385,166.6,325.9,115.5,266.8,64.4c-6.5-5.6-12.6-7.9-20.1-1.4C187.1,114.7,127.3,166.3,63.2,221.6Z" transform="translate(-38.04 -33.52)"/></svg>