<svg id="圖層_1" data-name="圖層 1" xmlns="http://www.w3.org/2000/svg" viewBox="0 0 389.13 406.7"><defs><style>.cls-1{fill:#51ae8a;}</style></defs><title>record-s</title><path class="cls-1" d="M406.6,222.4c0-58.1-.7-116.2.4-174.3.4-21.6-7.7-29.6-29-29.5q-165,.75-329.9,0c-20.4-.1-30.3,6.1-30.2,28.5q1.05,174.3,0,348.6c-.1,21.6,8.1,29.6,29.3,29.5q165-.75,329.9.1c23.4.1,30.4-9.4,29.9-31.8C405.8,336.5,406.6,279.5,406.6,222.4ZM380.3,375.3c.1,17.1-5.8,24.1-23.5,24q-144.75-.75-289.6,0c-18.2.1-23.2-7-22.9-24,.7-50.8.3-101.7.3-152.6s.6-101.7-.3-152.6c-.3-18.3,5-25.8,24.5-25.6q143.25,1.2,286.5,0c19.1-.1,25.3,6.9,25.2,25.6Q379.45,222.65,380.3,375.3Z" transform="translate(-17.9 -18.6)"/><path class="cls-1" d="M107.9,106.9c7.8-.8,24.5,8.4,19.1-12.9a29.11,29.11,0,0,0-1.6-5h0c-3.9-8.6-11.7-6.7-18.5-6.4-7.4.3-15.2,2.4-15.6,11.2C90.8,104.5,99.6,107.7,107.9,106.9Z" transform="translate(-17.9 -18.6)"/><path class="cls-1" d="M177.7,163c22.8.1,45.6,0,68.4,0v-.1c22.8,0,45.6.2,68.4-.1,6.2-.1,13.4-1.8,12.5-9.9-.6-5.8-6.9-7.3-12.2-7.3q-68.4-.3-136.8-.2c-6.4,0-13.9.9-14.1,8.7S171.2,162.9,177.7,163Z" transform="translate(-17.9 -18.6)"/><path class="cls-1" d="M312,262.6q-66.9-.15-133.7,0c-6.3,0-14.2.7-14.1,8.5,0,10.2,9.5,9.2,16.4,9.2,21.8.3,43.5.1,65.3.1s43.5.2,65.3-.1c6.8-.1,16.4.5,15.7-9.7C326.4,263.3,318.2,262.6,312,262.6Z" transform="translate(-17.9 -18.6)"/><path class="cls-1" d="M172.7,107.2c48.5.6,97,.3,145.5.1,8.6-.1,17.7-2.6,17-13.4s-10.3-11.6-18.7-11.6c-32-.2-64-1.2-95.9.2-18.9.8-39-7.1-56.6,5.9h0C152.2,101.3,160,107,172.7,107.2Z" transform="translate(-17.9 -18.6)"/><path class="cls-1" d="M318.2,318.4c-48.5-.3-97-.6-145.5,0-12.7.2-20.5,5.8-8.8,18.9h0c52.5,13.7,105.8,3.4,158.7,5.4,6.3.2,12.6-3.7,12.7-11C335.4,320.9,326.8,318.5,318.2,318.4Z" transform="translate(-17.9 -18.6)"/><path class="cls-1" d="M315.3,204.8c-22.8-.2-45.7-.1-68.5-.1-23.9,0-47.7-.2-71.6.1-4.9.1-10.8.5-11.1,7.7s5.5,8.2,10.5,8.2q70.05.3,140.1,0c5.9,0,13.7-.3,12.8-9.2C326.9,205.4,320.4,204.9,315.3,204.8Z" transform="translate(-17.9 -18.6)"/><path class="cls-1" d="M112,169.4c11.5-.2,24.9,0,25.3-15.3s-12.7-16-24.4-16c-12.4-.1-23.3,2.7-23.3,17.8C89.6,171.5,102.2,168.6,112,169.4Z" transform="translate(-17.9 -18.6)"/><path class="cls-1" d="M112.1,256.4c-9.8.2-22.4-2.2-22.5,13.4,0,15.1,10.9,17.9,23.3,17.8,11.7-.1,24.8-.5,24.5-16C136.9,256.3,123.6,256.1,112.1,256.4Z" transform="translate(-17.9 -18.6)"/><path class="cls-1" d="M114.1,200.2c-9.4.2-22.6-3.9-24.3,11-1.7,15.6,11.3,13.6,21.1,14.4,9.9-.7,23.3,1.8,24.8-11.4C137.4,199.9,124.1,200,114.1,200.2Z" transform="translate(-17.9 -18.6)"/><path class="cls-1" d="M101.4,324.4h0c-.7-.7-1.3-1.7-2.2-2.1a4.13,4.13,0,0,0-2.9-.2c-6.4,3.8-8.7,10.2-3.1,14.9,10.2,8.4,21.6,10.8,32.2-.4C125.3,317,109.6,328.1,101.4,324.4Z" transform="translate(-17.9 -18.6)"/></svg>