<?xml version="1.0" encoding="utf-8"?>
<!-- Generator: Adobe Illustrator 22.0.1, SVG Export Plug-In . SVG Version: 6.00 Build 0)  -->
<svg version="1.1" id="圖層_1" xmlns="http://www.w3.org/2000/svg" xmlns:xlink="http://www.w3.org/1999/xlink" x="0px" y="0px"
	 viewBox="0 0 424.8 444.1" style="enable-background:new 0 0 424.8 444.1;" xml:space="preserve">
<style type="text/css">
	.st0{fill:#7D7D7D;}
</style>
<title>record</title>
<path class="st0" d="M406.6,222.4c0-58.1-0.7-116.2,0.4-174.3c0.4-21.6-7.7-29.6-29-29.5c-110,0.5-219.9,0.5-329.9,0
	c-20.4-0.1-30.3,6.1-30.2,28.5c0.7,116.2,0.7,232.4,0,348.6c-0.1,21.6,8.1,29.6,29.3,29.5c110-0.5,219.9-0.4,329.9,0.1
	c23.4,0.1,30.4-9.4,29.9-31.8C405.8,336.5,406.6,279.5,406.6,222.4z M380.3,375.3c0.1,17.1-5.8,24.1-23.5,24
	c-96.5-0.5-193-0.5-289.6,0c-18.2,0.1-23.2-7-22.9-24c0.7-50.8,0.3-101.7,0.3-152.6S45.2,121,44.3,70.1c-0.3-18.3,5-25.8,24.5-25.6
	c95.5,0.8,191,0.8,286.5,0c19.1-0.1,25.3,6.9,25.2,25.6C379.8,171.8,379.8,273.6,380.3,375.3z"/>
<path class="st0" d="M107.9,106.9c7.8-0.8,24.5,8.4,19.1-12.9c-0.4-1.7-0.9-3.4-1.6-5l0,0c-3.9-8.6-11.7-6.7-18.5-6.4
	c-7.4,0.3-15.2,2.4-15.6,11.2C90.8,104.5,99.6,107.7,107.9,106.9z"/>
<path class="st0" d="M177.7,163c22.8,0.1,45.6,0,68.4,0v-0.1c22.8,0,45.6,0.2,68.4-0.1c6.2-0.1,13.4-1.8,12.5-9.9
	c-0.6-5.8-6.9-7.3-12.2-7.3c-45.6-0.2-91.2-0.2-136.8-0.2c-6.4,0-13.9,0.9-14.1,8.7C163.8,161.8,171.2,162.9,177.7,163z"/>
<path class="st0" d="M312,262.6c-44.6-0.1-89.1-0.1-133.7,0c-6.3,0-14.2,0.7-14.1,8.5c0,10.2,9.5,9.2,16.4,9.2
	c21.8,0.3,43.5,0.1,65.3,0.1s43.5,0.2,65.3-0.1c6.8-0.1,16.4,0.5,15.7-9.7C326.4,263.3,318.2,262.6,312,262.6z"/>
<path class="st0" d="M172.7,107.2c48.5,0.6,97,0.3,145.5,0.1c8.6-0.1,17.7-2.6,17-13.4c-0.7-10.7-10.3-11.6-18.7-11.6
	c-32-0.2-64-1.2-95.9,0.2c-18.9,0.8-39-7.1-56.6,5.9l0,0l0,0l0,0C152.2,101.3,160,107,172.7,107.2z"/>
<path class="st0" d="M318.2,318.4c-48.5-0.3-97-0.6-145.5,0c-12.7,0.2-20.5,5.8-8.8,18.9l0,0l0,0l0,0c52.5,13.7,105.8,3.4,158.7,5.4
	c6.3,0.2,12.6-3.7,12.7-11C335.4,320.9,326.8,318.5,318.2,318.4z"/>
<path class="st0" d="M315.3,204.8c-22.8-0.2-45.7-0.1-68.5-0.1c-23.9,0-47.7-0.2-71.6,0.1c-4.9,0.1-10.8,0.5-11.1,7.7
	c-0.3,7.2,5.5,8.2,10.5,8.2c46.7,0.2,93.4,0.2,140.1,0c5.9,0,13.7-0.3,12.8-9.2C326.9,205.4,320.4,204.9,315.3,204.8z"/>
<path class="st0" d="M112,169.4c11.5-0.2,24.9,0,25.3-15.3s-12.7-16-24.4-16c-12.4-0.1-23.3,2.7-23.3,17.8
	C89.6,171.5,102.2,168.6,112,169.4z"/>
<path class="st0" d="M112.1,256.4c-9.8,0.2-22.4-2.2-22.5,13.4c0,15.1,10.9,17.9,23.3,17.8c11.7-0.1,24.8-0.5,24.5-16
	C136.9,256.3,123.6,256.1,112.1,256.4z"/>
<path class="st0" d="M114.1,200.2c-9.4,0.2-22.6-3.9-24.3,11c-1.7,15.6,11.3,13.6,21.1,14.4c9.9-0.7,23.3,1.8,24.8-11.4
	C137.4,199.9,124.1,200,114.1,200.2z"/>
<path class="st0" d="M101.4,324.4L101.4,324.4c-0.7-0.7-1.3-1.7-2.2-2.1c-0.9-0.4-1.9-0.5-2.9-0.2c-6.4,3.8-8.7,10.2-3.1,14.9
	c10.2,8.4,21.6,10.8,32.2-0.4C125.3,317,109.6,328.1,101.4,324.4z"/>
</svg>
