<svg id="圖層_1" data-name="圖層 1" xmlns="http://www.w3.org/2000/svg" viewBox="0 0 414.49 414.94"><defs><style>.cls-1{fill:#51ae8a;}</style></defs><title>settings-s</title><path class="cls-1" d="M388.3,169.3c-24.8-3.1-25-13.3-11.2-30.1,7-8.5,19.7-16.3,15.1-28.6-9.8-26.1-30.5-43.9-53.7-57.7-16.8-9.9-26,6.8-36.9,14.9C283.7,81.2,275.8,75.6,274,55c-.9-11.1,1.8-25.8-8.9-31.5-24.8-13.1-51.8-10.7-78.4-4.5C164.9,24.1,171,42.6,169,56.8c-2.7,19.1-10.9,23-26.8,11.6-9.7-7-17.6-21.9-30.9-17.6-26.7,8.5-44,30-58.3,52.9-10.5,16.7,5.6,26.2,13.9,37,15,19.8,7.9,27.5-14.3,28.6-10.1.5-23.7-1.9-28.8,7.5-13.4,24.7-11.1,51.6-5.2,78.3,4.7,21.7,22.8,17.2,37.2,19,21.9,2.7,24,12,11.2,28.3-6.8,8.7-20,16.2-16.4,28.3,8,27,29.7,43.9,52.1,58.8,16.7,11.1,26.2-4.4,37.1-12.8,18-14.1,27.9-11,29.3,12.8.6,10.2-1.6,23.8,7.3,29,24.4,14.4,51.3,11.3,78,6,22-4.3,17.9-22.2,19.5-36.7,2.4-21.3,10.8-25.4,28-12.2,8.8,6.7,15.4,17.2,26.1,17.4,14.3-.3,52-34.4,61.6-52s-4.1-26.6-12.6-37.4c-13.5-17.1-12.9-29.8,11.9-29.1,38.7,1.1,39.2-24.7,39.5-51.5C428.6,180,424.5,173.8,388.3,169.3Zm-10.5,81.6c-33.8,1.7-46.6,35.3-23.4,61.6,14.5,16.4,9.5,25.5-3.5,37.9-12.1,11.5-20.5,20.2-37.9,4.8-28.8-25.4-59.9-11.6-62.6,28-1.6,22.4-14.1,21.1-28.8,21.2-15,.1-27.2.9-29-21.2C189.1,342,159.4,330,127.5,357c-17.6,14.8-24.9,3.1-35.2-6.6-10.9-10.3-19.9-18.4-5.8-35.3,26.5-31.5,14-61.3-27.4-64.6-23-1.9-19.7-15.3-20.3-29.6-.7-15.8.6-26.6,21.8-28.3,39.2-3.1,52.5-34.1,26.8-63.2-15.9-18-5.5-26.2,5.8-37.7,11-11.2,19.2-18.5,35.4-4.7,29.8,25.5,61.2,13.1,63.8-25.5C194,37.9,206.7,39,223,38.7c16.5-.3,26.1,1.9,27.5,22.7,2.6,38.6,33.7,51.3,63.7,25.8,16.1-13.7,24.5-7,35.4,4.4s22,19.5,5.9,37.7c-25.9,29.2-12.7,60.1,26.6,63.3,20.9,1.7,23.5,11.8,21.7,28.7C407.3,241.3,400.4,249.8,377.8,250.9Z" transform="translate(-13.92 -13.99)"/><path class="cls-1" d="M220.4,125.8a95.27,95.27,0,0,0-94.7,94.3c-.7,53.6,41.8,97.2,95.1,97.5a96.3,96.3,0,0,0,96.7-96.3C317.4,168.3,274,125.4,220.4,125.8ZM222,291.4c-40.5.3-70.9-30.4-70.4-70.9.5-39.1,30-68.5,69.1-68.8,40.5-.3,70.9,30.2,70.5,70.8-.3,38.7-30.5,68.7-69.2,68.9Z" transform="translate(-13.92 -13.99)"/></svg>