<?xml version="1.0" encoding="utf-8"?>
<!-- Generator: Adobe Illustrator 22.0.1, SVG Export Plug-In . SVG Version: 6.00 Build 0)  -->
<svg version="1.1" id="圖層_1" xmlns="http://www.w3.org/2000/svg" xmlns:xlink="http://www.w3.org/1999/xlink" x="0px" y="0px"
	 viewBox="0 0 442.2 443" style="enable-background:new 0 0 442.2 443;" xml:space="preserve">
<style type="text/css">
	.st0{fill:#747474;}
	.st1{fill:#757575;}
</style>
<title>settings</title>
<path class="st0" d="M388.3,169.3c-24.8-3.1-25-13.3-11.2-30.1c7-8.5,19.7-16.3,15.1-28.6c-9.8-26.1-30.5-43.9-53.7-57.7
	c-16.8-9.9-26,6.8-36.9,14.9C283.7,81.2,275.8,75.6,274,55c-0.9-11.1,1.8-25.8-8.9-31.5c-24.8-13.1-51.8-10.7-78.4-4.5
	c-21.8,5.1-15.7,23.6-17.7,37.8c-2.7,19.1-10.9,23-26.8,11.6c-9.7-7-17.6-21.9-30.9-17.6c-26.7,8.5-44,30-58.3,52.9
	c-10.5,16.7,5.6,26.2,13.9,37c15,19.8,7.9,27.5-14.3,28.6c-10.1,0.5-23.7-1.9-28.8,7.5c-13.4,24.7-11.1,51.6-5.2,78.3
	c4.7,21.7,22.8,17.2,37.2,19c21.9,2.7,24,12,11.2,28.3c-6.8,8.7-20,16.2-16.4,28.3c8,27,29.7,43.9,52.1,58.8
	c16.7,11.1,26.2-4.4,37.1-12.8c18-14.1,27.9-11,29.3,12.8c0.6,10.2-1.6,23.8,7.3,29c24.4,14.4,51.3,11.3,78,6
	c22-4.3,17.9-22.2,19.5-36.7c2.4-21.3,10.8-25.4,28-12.2c8.8,6.7,15.4,17.2,26.1,17.4c14.3-0.3,52-34.4,61.6-52
	c9.6-17.6-4.1-26.6-12.6-37.4c-13.5-17.1-12.9-29.8,11.9-29.1c38.7,1.1,39.2-24.7,39.5-51.5C428.6,180,424.5,173.8,388.3,169.3z
	 M377.8,250.9c-33.8,1.7-46.6,35.3-23.4,61.6c14.5,16.4,9.5,25.5-3.5,37.9c-12.1,11.5-20.5,20.2-37.9,4.8
	c-28.8-25.4-59.9-11.6-62.6,28c-1.6,22.4-14.1,21.1-28.8,21.2c-15,0.1-27.2,0.9-29-21.2c-3.5-41.2-33.2-53.2-65.1-26.2
	c-17.6,14.8-24.9,3.1-35.2-6.6c-10.9-10.3-19.9-18.4-5.8-35.3c26.5-31.5,14-61.3-27.4-64.6c-23-1.9-19.7-15.3-20.3-29.6
	c-0.7-15.8,0.6-26.6,21.8-28.3c39.2-3.1,52.5-34.1,26.8-63.2c-15.9-18-5.5-26.2,5.8-37.7c11-11.2,19.2-18.5,35.4-4.7
	c29.8,25.5,61.2,13.1,63.8-25.5c1.6-23.6,14.3-22.5,30.6-22.8c16.5-0.3,26.1,1.9,27.5,22.7c2.6,38.6,33.7,51.3,63.7,25.8
	c16.1-13.7,24.5-7,35.4,4.4c10.9,11.4,22,19.5,5.9,37.7c-25.9,29.2-12.7,60.1,26.6,63.3c20.9,1.7,23.5,11.8,21.7,28.7
	C407.3,241.3,400.4,249.8,377.8,250.9z"/>
<path class="st1" d="M220.4,125.8c-52,0.3-94.2,42.3-94.7,94.3c-0.7,53.6,41.8,97.2,95.1,97.5s96.8-43.1,96.7-96.3
	C317.4,168.3,274,125.4,220.4,125.8z M222,291.4c-40.5,0.3-70.9-30.4-70.4-70.9c0.5-39.1,30-68.5,69.1-68.8
	c40.5-0.3,70.9,30.2,70.5,70.8C290.9,261.2,260.7,291.2,222,291.4L222,291.4z"/>
</svg>
